<?xml version="1.0" encoding="UTF-8" standalone="no"?><!DOCTYPE svg PUBLIC "-//W3C//DTD SVG 1.1//EN" "http://www.w3.org/Graphics/SVG/1.1/DTD/svg11.dtd"><svg width="100%" height="100%" viewBox="0 0 938 202" version="1.1" xmlns="http://www.w3.org/2000/svg" xmlns:xlink="http://www.w3.org/1999/xlink" xml:space="preserve" xmlns:serif="http://www.serif.com/" style="fill-rule:evenodd;clip-rule:evenodd;stroke-linecap:round;stroke-linejoin:round;stroke-miterlimit:1.5;"><g><path d="M270.021,24.073l0,128.655c0,8.871 -7.202,16.073 -16.073,16.073l-229.876,0c-8.871,0 -16.073,-7.202 -16.073,-16.073l0,-128.655c0,-8.871 7.202,-16.073 16.073,-16.073l229.876,0c8.871,0 16.073,7.202 16.073,16.073Z" style="fill:url(#_Linear1);stroke:#01647a;stroke-width:16px;"/><path d="M264.981,157.175l-126.82,-96.135l-125.971,97.68l125.971,-97.68" style="fill:none;stroke:#01647a;stroke-width:16px;"/><path d="M12.19,13.692l7.957,-4.514l235.714,-0.458l9.12,4.088l-125.971,80.392l-126.82,-79.508Z" style="fill:url(#_Linear2);stroke:#01647a;stroke-width:16px;"/><path d="M12.19,18.054l126.82,75.146l125.971,-76.08l-125.971,76.08" style="fill:none;stroke:#01647a;stroke-width:16px;"/></g><g transform="matrix(197.345112,0,0,197.345112,331.92666,158.417832)"><path d="M0.32,-0.546l0,0.099l-0.31,0l0,-0.099l0.31,0Zm-0.233,-0.13l0.127,0l0,0.522c0,0.02 0.004,0.034 0.013,0.043c0.008,0.009 0.022,0.014 0.042,0.014c0.006,0 0.013,-0.001 0.023,-0.002c0.01,-0.001 0.017,-0.003 0.023,-0.004l0.02,0.098c-0.014,0.004 -0.028,0.007 -0.043,0.009c-0.015,0.002 -0.029,0.003 -0.042,0.003c-0.052,0 -0.092,-0.013 -0.12,-0.039c-0.028,-0.026 -0.042,-0.063 -0.042,-0.111l0,-0.533Z" style="fill:url(#_Linear3);fill-rule:nonzero;"/></g><g transform="matrix(197.345112,0,0,197.345112,395.701299,158.417832)"><path d="M0.067,-0l0,-0.546l0.127,0l0,0.546l-0.127,-0Zm0.063,-0.623c-0.02,0 -0.038,-0.007 -0.052,-0.021c-0.014,-0.014 -0.022,-0.03 -0.022,-0.049c0,-0.02 0.007,-0.036 0.022,-0.05c0.014,-0.014 0.032,-0.02 0.052,-0.02c0.021,0 0.038,0.007 0.052,0.02c0.014,0.014 0.022,0.03 0.022,0.049c0,0.019 -0.007,0.036 -0.022,0.049c-0.014,0.014 -0.032,0.021 -0.052,0.021Z" style="fill:url(#_Linear4);fill-rule:nonzero;"/></g><g transform="matrix(197.345112,0,0,197.345112,441.391163,158.417832)"><path d="M0.269,0.01c-0.043,0 -0.081,-0.011 -0.115,-0.033c-0.034,-0.022 -0.061,-0.054 -0.08,-0.096c-0.02,-0.042 -0.029,-0.093 -0.029,-0.153c0,-0.061 0.01,-0.112 0.03,-0.154c0.02,-0.042 0.047,-0.073 0.081,-0.095c0.034,-0.021 0.072,-0.032 0.114,-0.032c0.032,0 0.059,0.005 0.08,0.016c0.021,0.011 0.037,0.024 0.049,0.039c0.012,0.015 0.021,0.029 0.028,0.042l0.005,0l0,-0.272l0.127,0l0,0.728l-0.124,-0l0,-0.086l-0.008,0c-0.006,0.013 -0.016,0.027 -0.028,0.042c-0.012,0.015 -0.029,0.028 -0.05,0.038c-0.021,0.011 -0.047,0.016 -0.078,0.016Zm0.034,-0.104c0.028,0 0.051,-0.007 0.07,-0.022c0.019,-0.015 0.034,-0.036 0.044,-0.062c0.01,-0.027 0.015,-0.058 0.015,-0.093c0,-0.036 -0.005,-0.066 -0.015,-0.093c-0.01,-0.026 -0.025,-0.047 -0.044,-0.061c-0.019,-0.015 -0.043,-0.022 -0.071,-0.022c-0.029,0 -0.052,0.008 -0.072,0.023c-0.019,0.015 -0.034,0.036 -0.043,0.062c-0.01,0.026 -0.015,0.057 -0.015,0.091c0,0.034 0.005,0.064 0.015,0.091c0.01,0.027 0.024,0.048 0.044,0.063c0.019,0.015 0.043,0.023 0.071,0.023Z" style="fill:url(#_Linear5);fill-rule:nonzero;"/></g><g transform="matrix(197.345112,0,0,197.345112,558.664942,158.417832)"><path d="M0.067,-0l0,-0.546l0.127,0l0,0.546l-0.127,-0Zm0.063,-0.623c-0.02,0 -0.038,-0.007 -0.052,-0.021c-0.014,-0.014 -0.022,-0.03 -0.022,-0.049c0,-0.02 0.007,-0.036 0.022,-0.05c0.014,-0.014 0.032,-0.02 0.052,-0.02c0.021,0 0.038,0.007 0.052,0.02c0.014,0.014 0.022,0.03 0.022,0.049c0,0.019 -0.007,0.036 -0.022,0.049c-0.014,0.014 -0.032,0.021 -0.052,0.021Z" style="fill:url(#_Linear6);fill-rule:nonzero;"/></g><g transform="matrix(197.345112,0,0,197.345112,604.354805,158.417832)"><path d="M0.194,-0.32l0,0.32l-0.127,-0l0,-0.546l0.12,0l0.002,0.135l-0.01,0c0.015,-0.047 0.037,-0.083 0.067,-0.106c0.03,-0.024 0.067,-0.036 0.111,-0.036c0.037,0 0.07,0.008 0.098,0.024c0.028,0.016 0.05,0.039 0.065,0.07c0.016,0.031 0.023,0.068 0.023,0.112l0,0.347l-0.127,-0l0,-0.328c0,-0.037 -0.009,-0.065 -0.028,-0.086c-0.019,-0.021 -0.045,-0.031 -0.078,-0.031c-0.022,0 -0.042,0.005 -0.06,0.015c-0.018,0.01 -0.031,0.024 -0.041,0.043c-0.01,0.019 -0.015,0.041 -0.015,0.068Z" style="fill:url(#_Linear7);fill-rule:nonzero;"/></g><g transform="matrix(197.345112,0,0,197.345112,719.192532,158.417832)"><path d="M0.303,0.216c-0.044,0 -0.082,-0.006 -0.114,-0.017c-0.032,-0.011 -0.059,-0.026 -0.079,-0.045c-0.021,-0.019 -0.036,-0.041 -0.045,-0.065l0.108,-0.039c0.006,0.01 0.014,0.021 0.024,0.031c0.01,0.011 0.024,0.02 0.041,0.027c0.017,0.007 0.039,0.011 0.065,0.011c0.039,0 0.071,-0.009 0.095,-0.028c0.024,-0.018 0.035,-0.047 0.035,-0.086l0,-0.103l-0.01,0c-0.006,0.013 -0.016,0.027 -0.028,0.041c-0.012,0.014 -0.028,0.026 -0.049,0.035c-0.02,0.009 -0.046,0.014 -0.078,0.014c-0.042,0 -0.08,-0.01 -0.114,-0.03c-0.034,-0.02 -0.061,-0.049 -0.081,-0.089c-0.02,-0.039 -0.03,-0.089 -0.03,-0.148c0,-0.06 0.01,-0.11 0.03,-0.152c0.02,-0.041 0.047,-0.073 0.081,-0.094c0.034,-0.021 0.072,-0.032 0.114,-0.032c0.032,0 0.059,0.005 0.08,0.016c0.021,0.011 0.037,0.024 0.05,0.039c0.012,0.015 0.022,0.029 0.028,0.042l0.007,0l0,-0.09l0.125,0l0,0.548c0,0.048 -0.011,0.088 -0.033,0.12c-0.022,0.032 -0.052,0.055 -0.091,0.071c-0.038,0.015 -0.082,0.023 -0.131,0.023Zm0.001,-0.324c0.028,0 0.051,-0.007 0.071,-0.02c0.019,-0.013 0.034,-0.032 0.044,-0.057c0.01,-0.025 0.015,-0.055 0.015,-0.09c0,-0.035 -0.005,-0.065 -0.015,-0.091c-0.01,-0.026 -0.024,-0.046 -0.044,-0.06c-0.019,-0.014 -0.043,-0.022 -0.071,-0.022c-0.029,0 -0.052,0.008 -0.072,0.023c-0.019,0.015 -0.034,0.036 -0.044,0.062c-0.01,0.026 -0.015,0.055 -0.015,0.088c0,0.034 0.005,0.063 0.015,0.088c0.01,0.025 0.025,0.045 0.044,0.058c0.019,0.014 0.043,0.021 0.072,0.021Z" style="fill:url(#_Linear8);fill-rule:nonzero;"/></g><g transform="matrix(197.345112,0,0,197.345112,836.728407,158.417832)"><path d="M0.274,0.011c-0.042,0 -0.079,-0.006 -0.111,-0.018c-0.032,-0.012 -0.059,-0.03 -0.079,-0.053c-0.021,-0.023 -0.034,-0.051 -0.04,-0.084l0.119,-0.022c0.007,0.027 0.021,0.047 0.04,0.06c0.019,0.013 0.044,0.02 0.075,0.02c0.031,0 0.056,-0.006 0.074,-0.019c0.018,-0.013 0.028,-0.028 0.028,-0.046c0,-0.016 -0.006,-0.029 -0.018,-0.039c-0.012,-0.01 -0.031,-0.018 -0.056,-0.023l-0.093,-0.02c-0.052,-0.011 -0.09,-0.029 -0.115,-0.055c-0.025,-0.025 -0.038,-0.058 -0.038,-0.098c0,-0.034 0.009,-0.063 0.028,-0.088c0.019,-0.025 0.044,-0.044 0.077,-0.058c0.033,-0.014 0.071,-0.02 0.115,-0.02c0.041,0 0.077,0.006 0.107,0.018c0.03,0.012 0.054,0.028 0.072,0.049c0.018,0.021 0.031,0.046 0.038,0.074l-0.113,0.022c-0.006,-0.019 -0.018,-0.035 -0.034,-0.048c-0.016,-0.013 -0.039,-0.02 -0.069,-0.02c-0.027,0 -0.049,0.006 -0.068,0.018c-0.018,0.012 -0.027,0.027 -0.027,0.046c0,0.016 0.006,0.029 0.018,0.039c0.012,0.01 0.032,0.019 0.06,0.025l0.093,0.02c0.052,0.011 0.09,0.029 0.115,0.053c0.025,0.024 0.038,0.056 0.038,0.094c0,0.034 -0.01,0.065 -0.03,0.091c-0.02,0.026 -0.048,0.047 -0.083,0.061c-0.035,0.015 -0.076,0.022 -0.122,0.022Z" style="fill:url(#_Linear9);fill-rule:nonzero;"/></g><g transform="matrix(197.345112,0,0,197.345112,945.160122,158.417832)"></g><defs><linearGradient id="_Linear1" x1="0" y1="0" x2="1" y2="0" gradientUnits="userSpaceOnUse" gradientTransform="matrix(-5.76,-312.782168,312.782168,-5.76,188.355139,93.2)"><stop offset="0" style="stop-color:#028dad;stop-opacity:1"/><stop offset="1" style="stop-color:#004859;stop-opacity:1"/></linearGradient><linearGradient id="_Linear2" x1="0" y1="0" x2="1" y2="0" gradientUnits="userSpaceOnUse" gradientTransform="matrix(-3.6,-230.88,230.88,-3.6,163.395139,117.137832)"><stop offset="0" style="stop-color:#028dad;stop-opacity:1"/><stop offset="1" style="stop-color:#004859;stop-opacity:1"/></linearGradient><linearGradient id="_Linear3" x1="0" y1="0" x2="1" y2="0" gradientUnits="userSpaceOnUse" gradientTransform="matrix(-0.002432,0.814816,-0.814816,-0.002432,1.665856,-0.762207)"><stop offset="0" style="stop-color:#028dad;stop-opacity:1"/><stop offset="1" style="stop-color:#01647a;stop-opacity:1"/></linearGradient><linearGradient id="_Linear4" x1="0" y1="0" x2="1" y2="0" gradientUnits="userSpaceOnUse" gradientTransform="matrix(-0.002432,0.814816,-0.814816,-0.002432,1.342693,-0.762207)"><stop offset="0" style="stop-color:#028dad;stop-opacity:1"/><stop offset="1" style="stop-color:#01647a;stop-opacity:1"/></linearGradient><linearGradient id="_Linear5" x1="0" y1="0" x2="1" y2="0" gradientUnits="userSpaceOnUse" gradientTransform="matrix(-0.002432,0.814816,-0.814816,-0.002432,1.11117,-0.762207)"><stop offset="0" style="stop-color:#028dad;stop-opacity:1"/><stop offset="1" style="stop-color:#01647a;stop-opacity:1"/></linearGradient><linearGradient id="_Linear6" x1="0" y1="0" x2="1" y2="0" gradientUnits="userSpaceOnUse" gradientTransform="matrix(-0.002432,0.814816,-0.814816,-0.002432,0.516913,-0.762207)"><stop offset="0" style="stop-color:#028dad;stop-opacity:1"/><stop offset="1" style="stop-color:#01647a;stop-opacity:1"/></linearGradient><linearGradient id="_Linear7" x1="0" y1="0" x2="1" y2="0" gradientUnits="userSpaceOnUse" gradientTransform="matrix(-0.002432,0.814816,-0.814816,-0.002432,0.28539,-0.762207)"><stop offset="0" style="stop-color:#028dad;stop-opacity:1"/><stop offset="1" style="stop-color:#01647a;stop-opacity:1"/></linearGradient><linearGradient id="_Linear8" x1="0" y1="0" x2="1" y2="0" gradientUnits="userSpaceOnUse" gradientTransform="matrix(-0.002432,0.814816,-0.814816,-0.002432,-0.296523,-0.762207)"><stop offset="0" style="stop-color:#028dad;stop-opacity:1"/><stop offset="1" style="stop-color:#01647a;stop-opacity:1"/></linearGradient><linearGradient id="_Linear9" x1="0" y1="0" x2="1" y2="0" gradientUnits="userSpaceOnUse" gradientTransform="matrix(-0.002432,0.814816,-0.814816,-0.002432,-0.892109,-0.762207)"><stop offset="0" style="stop-color:#028dad;stop-opacity:1"/><stop offset="1" style="stop-color:#01647a;stop-opacity:1"/></linearGradient></defs></svg>